<svg viewBox="428.6309 306.1616 238.7836 42.9454" width="231" height="41.54" xmlns="http://www.w3.org/2000/svg" xmlns:xlink="http://www.w3.org/1999/xlink" preserveAspectRatio="none"><defs></defs><style>.aD6z1nYkhcolor {fill:#1E1E1D;fill-opacity:0.88;}.aD6z1nYkhstrokeColor-str {stroke:#2B5942;stroke-opacity:1;}.aDjcvPp62zgcolor {fill:#87BDCE;fill-opacity:1;}.aLgOaV3zRcolors-0 {fill:#87BDCE;fill-opacity:1;}.aV7HyVSbZr0filter-floo {flood-color:#87BDCE;flood-opacity:0.5;}.icon3-str {stroke:#8C94CC;stroke-opacity:1;}</style><defs>
      <filter
        x="467.8889"
        y="318.2728"
        width="52.4398"
        height="30.6133"
        id="V7HyVSbZr"
        filterUnits="userSpaceOnUse"
        primitiveUnits="userSpaceOnUse"
        color-interpolation-filters="sRGB">
        <feMerge><feMergeNode in="SourceGraphic" /></feMerge>
      </filter></defs><g opacity="1" transform="rotate(0 520.3287 306.1616)">
<svg width="147.0858" height="42.9454" x="520.3287" y="306.1616" version="1.1" preserveAspectRatio="none" viewBox="2.44 -31.24 107.67999999999999 31.44">
  <g transform="matrix(1 0 0 1 0 0)" className="aD6z1nYkhcolor"><path id="id-D6z1nYkh6" d="M12.96-22.08Q17.96-22.08 21.08-18.24L21.08-18.24Q21.40-17.88 21.40-17.40L21.40-17.40Q21.40-16.76 20.72-16.28L20.72-16.28Q20.36-16.04 19.96-16.04L19.96-16.04Q19.36-16.04 18.80-16.64L18.80-16.64Q17.60-17.96 16.16-18.62Q14.72-19.28 12.96-19.28L12.96-19.28Q10.76-19.28 9.04-18.22Q7.32-17.16 6.38-15.24Q5.44-13.32 5.44-10.92L5.44-10.92Q5.44-8.56 6.44-6.66Q7.44-4.76 9.24-3.68Q11.04-2.60 13.36-2.60L13.36-2.60Q16.56-2.60 18.52-4.32L18.52-4.32Q19.04-4.76 19.60-4.76L19.60-4.76Q20.08-4.76 20.48-4.44L20.48-4.44Q21.04-3.96 21.04-3.36L21.04-3.36Q21.04-2.84 20.64-2.48L20.64-2.48Q17.76 0.20 13.36 0.20L13.36 0.20Q10.24 0.20 7.76-1.26Q5.28-2.72 3.86-5.26Q2.44-7.80 2.44-10.92L2.44-10.92Q2.44-14.12 3.80-16.66Q5.16-19.20 7.56-20.64Q9.96-22.08 12.96-22.08L12.96-22.08Z M31.40-22.08Q34.56-22.08 37.08-20.64Q39.60-19.20 41.06-16.64Q42.52-14.08 42.52-10.92L42.52-10.92Q42.52-7.76 41.08-5.22Q39.64-2.68 37.10-1.24Q34.56 0.20 31.40 0.20L31.40 0.20Q28.24 0.20 25.70-1.24Q23.16-2.68 21.72-5.22Q20.28-7.76 20.28-10.92L20.28-10.92Q20.28-14.08 21.72-16.64Q23.16-19.20 25.70-20.64Q28.24-22.08 31.40-22.08L31.40-22.08ZM31.40-19.28Q29.12-19.28 27.26-18.20Q25.40-17.12 24.34-15.22Q23.28-13.32 23.28-10.92L23.28-10.92Q23.28-8.56 24.34-6.66Q25.40-4.76 27.26-3.68Q29.12-2.60 31.40-2.60L31.40-2.60Q33.72-2.60 35.56-3.68Q37.40-4.76 38.44-6.66Q39.48-8.56 39.48-10.92L39.48-10.92Q39.48-13.32 38.44-15.22Q37.40-17.12 35.56-18.20Q33.72-19.28 31.40-19.28L31.40-19.28Z M52.88-22.12Q55.72-22.12 57.98-20.92Q60.24-19.72 61.52-17.42Q62.80-15.12 62.80-11.92L62.80-11.92L62.80-1.52Q62.80-0.88 62.36-0.44Q61.92 0 61.28 0L61.28 0Q60.60 0 60.16-0.44Q59.72-0.88 59.72-1.52L59.72-1.52L59.72-11.92Q59.72-15.48 57.74-17.34Q55.76-19.20 52.56-19.20L52.56-19.20Q50.60-19.20 49.02-18.44Q47.44-17.68 46.52-16.34Q45.60-15 45.60-13.36L45.60-13.36L45.60-1.52Q45.60-0.84 45.18-0.42Q44.76 0 44.08 0L44.08 0Q43.40 0 42.96-0.42Q42.52-0.84 42.52-1.52L42.52-1.52L42.52-20.32Q42.52-21 42.96-21.44Q43.40-21.88 44.08-21.88L44.08-21.88Q44.76-21.88 45.18-21.44Q45.60-21 45.60-20.32L45.60-20.32L45.60-18.96Q46.92-20.44 48.80-21.28Q50.68-22.12 52.88-22.12L52.88-22.12Z M72.92-22.08Q75.88-22.08 78.16-20.70Q80.44-19.32 81.70-16.88Q82.96-14.44 82.96-11.32L82.96-11.32Q82.96-10.68 82.56-10.30Q82.16-9.92 81.52-9.92L81.52-9.92L65.36-9.92Q65.68-6.64 67.92-4.60Q70.16-2.56 73.52-2.56L73.52-2.56Q74.96-2.56 76.42-3.06Q77.88-3.56 78.76-4.32L78.76-4.32Q79.28-4.72 79.84-4.72L79.84-4.72Q80.28-4.72 80.72-4.40L80.72-4.40Q81.24-3.92 81.24-3.32L81.24-3.32Q81.24-2.80 80.80-2.40L80.80-2.40Q79.48-1.28 77.44-0.54Q75.40 0.20 73.52 0.20L73.52 0.20Q70.32 0.20 67.80-1.22Q65.28-2.64 63.86-5.18Q62.44-7.72 62.44-10.92L62.44-10.92Q62.44-14.16 63.78-16.70Q65.12-19.24 67.50-20.66Q69.88-22.08 72.92-22.08L72.92-22.08ZM72.92-19.32Q69.88-19.32 67.88-17.44Q65.88-15.56 65.44-12.48L65.44-12.48L80.08-12.48Q79.76-15.56 77.84-17.44Q75.92-19.32 72.92-19.32L72.92-19.32Z M98.68-2.20Q99.04-1.80 99.04-1.28L99.04-1.28Q99.04-0.68 98.48-0.20L98.48-0.20Q98 0.16 97.52 0.16L97.52 0.16Q96.88 0.16 96.44-0.40L96.44-0.40L88.20-10.52L85.20-7.80L85.20-1.52Q85.20-0.84 84.78-0.42Q84.36 0 83.68 0L83.68 0Q83 0 82.58-0.42Q82.16-0.84 82.16-1.52L82.16-1.52L82.16-29.72Q82.16-30.40 82.58-30.82Q83-31.24 83.68-31.24L83.68-31.24Q84.36-31.24 84.78-30.82Q85.20-30.40 85.20-29.72L85.20-29.72L85.20-11.52L96.48-21.72Q96.92-22.12 97.44-22.12L97.44-22.12Q98.04-22.12 98.44-21.64L98.44-21.64Q98.88-21.12 98.88-20.68L98.88-20.68Q98.88-20.12 98.36-19.68L98.36-19.68L90.36-12.44L98.68-2.20Z M108.68-3.08Q109.32-3.08 109.72-2.64Q110.12-2.20 110.12-1.52L110.12-1.52Q110.12-0.88 109.64-0.44Q109.16 0 108.44 0L108.44 0L107.60 0Q105.48 0 103.80-1.02Q102.12-2.04 101.18-3.78Q100.24-5.52 100.24-7.72L100.24-7.72L100.24-18.40L97.64-18.40Q97-18.40 96.62-18.78Q96.24-19.16 96.24-19.72L96.24-19.72Q96.24-20.32 96.62-20.70Q97-21.08 97.64-21.08L97.64-21.08L100.24-21.08L100.24-27.28Q100.24-27.96 100.66-28.40Q101.08-28.84 101.76-28.84L101.76-28.84Q102.44-28.84 102.88-28.40Q103.32-27.96 103.32-27.28L103.32-27.28L103.32-21.08L107.84-21.08Q108.48-21.08 108.86-20.70Q109.24-20.32 109.24-19.72L109.24-19.72Q109.24-19.16 108.86-18.78Q108.48-18.40 107.84-18.40L107.84-18.40L103.32-18.40L103.32-7.72Q103.32-5.68 104.52-4.38Q105.72-3.08 107.60-3.08L107.60-3.08L108.68-3.08Z"/></g>
</svg>
</g><g opacity="0.38" transform="rotate(0 428.6309 318.2728)">
<svg width="33.516" height="30.8342" x="428.6309" y="318.2728" version="1.1" preserveAspectRatio="none" viewBox="0.1999955177307129 2.6051557064056396 63.80000305175781 58.69483947753906">
  <g transform="matrix(1 0 0 1 0 0)" className="aLgOaV3zRcolors-0"><path d="M64,36.5c0-5.5-4.4-9.9-9.9-9.9s-9.9,4.4-9.9,9.9c0,5.1,3.9,9.3,8.9,9.8c-0.5,8.9-8.3,13-15.6,13c-6.1,0-12.6-2.9-14.9-9.1  h18c0.6,0,1-0.4,1-1c0-5-2.1-9.7-5.5-13.1c0.4-1,0.8-2.2,1.1-3.4c1.7-0.4,2.3-3.4,2.3-6c0-2.8-0.7-6.1-2.7-6.1c-2,0-2.7,3.3-2.7,6.1  c0,1.9,0.3,4,1.1,5.2c-0.2,1-0.5,2-0.8,2.9c-1.3-1-2.7-1.8-4.2-2.5c2.1-2.7,3.5-6.3,3.5-10.2c0-0.7,0-1.5-0.1-2.3  c0-0.1,0-0.1-0.1-0.2c0.1,0,0.3,0,0.4-0.1c2.1-0.4,3.2-1.8,3.1-3.6c-0.1-4.7-8.6-12.6-14.1-13.2c-5.6-0.6-8.4,1.8-9.4,2.9  c-1,0.1-3.2,0.4-4.6,2.3c-1.5,2-1.6,4.9-0.3,8.8c0,0.1,0.1,0.2,0.1,0.3c-0.5,1.6-0.8,3.3-0.8,5.1c0,4,1.3,7.6,3.5,10.3  c-1.5,0.7-2.9,1.5-4.2,2.5c-0.2-1-0.5-1.9-0.7-3c0.8-1.2,1.1-3.3,1.1-5.2c0-2.8-0.7-6.1-2.7-6.1s-2.7,3.3-2.7,6.1  c0,2.6,0.6,5.7,2.3,6c0.3,1.2,0.7,2.4,1.1,3.5c-3.4,3.4-5.4,8-5.4,13c0,0.6,0.4,1,1,1h19.4c2.3,7.6,9.8,11.1,17,11.1  c8.2,0,17.1-4.7,17.6-15.1C60.1,45.8,64,41.6,64,36.5z M36.9,22.9c0.3,0.6,0.7,1.9,0.7,3.8s-0.4,3.3-0.7,3.8  c-0.3-0.6-0.7-1.9-0.7-3.8S36.6,23.5,36.9,22.9z M4.9,22.9c0.3,0.6,0.7,1.9,0.7,3.8S5.2,30,4.9,30.5c-0.3-0.6-0.7-1.9-0.7-3.8  S4.6,23.5,4.9,22.9z M39.6,48.3H22.2c-0.1-0.6-0.2-1.2-0.2-1.9c4.9-0.3,10.1-3,13.2-8.3C37.7,40.8,39.3,44.3,39.6,48.3z M10.4,9  c1.2-1.6,3.5-1.6,3.5-1.5c0.3,0,0.7-0.2,0.9-0.4c0.1-0.1,2.2-3,7.8-2.4C27.2,5.2,35,12.3,35.2,16c0,0.6-0.1,1.3-1.5,1.6  c-7.5,1.6-16.2-3.1-17.9-4.3c-0.1-0.1-0.1-0.1-0.2-0.2c-0.4-0.2-0.9-0.2-1.2,0.2l-0.1,0.1c-1.7,1.3-3.2,1.7-4,1.9  C9.4,12.4,9.4,10.3,10.4,9z M10.6,17.5c0-0.1,0-0.2,0-0.3c1-0.2,2.7-0.7,4.5-2c2.4,1.5,8.6,4.7,15.2,4.7c0.5,0,0.9,0,1.4-0.1  c0,0.1,0,0.1,0,0.2c0.1,0.7,0.1,1.4,0.1,2c0,7.2-4.9,13.1-10.9,13.1S9.9,29.2,9.9,22C9.9,20.5,10.1,18.9,10.6,17.5z M12.9,33.9  c2.2,2,5,3.2,8,3.2s5.8-1.2,8-3.2c1.8,0.7,3.4,1.6,4.8,2.8c-3,5.6-8.4,7.7-12.8,7.7l0,0c-4.4,0-9.8-2.1-12.7-7.7  C9.5,35.5,11.1,34.6,12.9,33.9z M2.3,48.3c0.2-3.8,1.8-7.4,4.3-10.1c3.1,5.3,8.3,7.9,13.3,8.2c0,0.7,0.1,1.3,0.2,1.9H2.3z   M54.1,44.4c-4.4,0-7.9-3.5-7.9-7.9s3.5-7.9,7.9-7.9s7.9,3.5,7.9,7.9C62,40.8,58.5,44.4,54.1,44.4z"></path><path d="M54.1,31c-3,0-5.5,2.4-5.5,5.5c0,3,2.4,5.5,5.5,5.5s5.5-2.4,5.5-5.5C59.6,33.5,57.2,31,54.1,31z M54.1,39.9  c-1.9,0-3.5-1.5-3.5-3.5s1.5-3.5,3.5-3.5c2,0,3.5,1.5,3.5,3.5S56,39.9,54.1,39.9z"></path></g>
</svg>
</g><g opacity="1" transform="rotate(0 467.8889 318.2728)">
<svg width="52.4398" height="30.6133" x="467.8889" y="318.2728" version="1.1" preserveAspectRatio="none" viewBox="3.6 -22.12 37.96 22.160000000000004">
  <g transform="matrix(1 0 0 1 0 0)" className="aDjcvPp62zgcolor"><path id="id-DjcvPp62zg2" d="M14.32-22.12Q16.44-22.12 17.64-21.48Q18.84-20.84 18.84-19.88L18.84-19.88Q18.84-19.60 18.80-19.48L18.80-19.48Q18.44-18.20 17.20-18.20L17.20-18.20Q17-18.20 16.60-18.28L16.60-18.28Q15-18.56 14-18.56L14-18.56Q11.12-18.56 9.36-17.24Q7.60-15.92 7.60-13.68L7.60-13.68L7.60-2Q7.60-1.04 7.10-0.52Q6.60 0 5.60 0L5.60 0Q4.64 0 4.12-0.50Q3.60-1 3.60-2L3.60-2L3.60-19.88Q3.60-20.84 4.12-21.36Q4.64-21.88 5.60-21.88L5.60-21.88Q7.60-21.88 7.60-19.88L7.60-19.88L7.60-19.12Q8.80-20.52 10.56-21.32Q12.32-22.12 14.32-22.12L14.32-22.12Z M31.92-22.08Q34.68-22.08 36.88-20.88Q39.08-19.68 40.32-17.38Q41.56-15.08 41.56-11.84L41.56-11.84L41.56-2Q41.56-1.12 40.98-0.54Q40.40 0.04 39.52 0.04L39.52 0.04Q38.64 0.04 38.06-0.54Q37.48-1.12 37.48-2L37.48-2L37.48-11.84Q37.48-15.08 35.74-16.74Q34-18.40 31.12-18.40L31.12-18.40Q29.44-18.40 28.06-17.72Q26.68-17.04 25.90-15.88Q25.12-14.72 25.12-13.28L25.12-13.28L25.12-2Q25.12-1.12 24.56-0.54Q24 0.04 23.08 0.04L23.08 0.04Q22.20 0.04 21.62-0.54Q21.04-1.12 21.04-2L21.04-2L21.04-19.84Q21.04-20.76 21.62-21.32Q22.20-21.88 23.08-21.88L23.08-21.88Q24-21.88 24.56-21.32Q25.12-20.76 25.12-19.84L25.12-19.84L25.12-19.40Q26.40-20.68 28.16-21.38Q29.92-22.08 31.92-22.08L31.92-22.08Z"/></g>
</svg>
</g></svg>