<?xml version="1.0" encoding="UTF-8"?>
<!DOCTYPE svg PUBLIC "-//W3C//DTD SVG 1.1//EN" "http://www.w3.org/Graphics/SVG/1.1/DTD/svg11.dtd">
<svg xmlns="http://www.w3.org/2000/svg" version="1.1" width="683px" height="365px" style="shape-rendering:geometricPrecision; text-rendering:geometricPrecision; image-rendering:optimizeQuality; fill-rule:evenodd; clip-rule:evenodd" xmlns:xlink="http://www.w3.org/1999/xlink">
<g><path style="opacity:0.667" fill="#b5d0a2" d="M 297.5,115.5 C 297.5,115.833 297.5,116.167 297.5,116.5C 291.167,116.5 284.833,116.5 278.5,116.5C 284.768,114.479 291.101,114.146 297.5,115.5 Z"/></g>
<g><path style="opacity:0.157" fill="#d3e3c8" d="M 297.5,116.5 C 297.5,116.167 297.5,115.833 297.5,115.5C 300.91,115.457 304.243,115.957 307.5,117C 311.613,118.188 315.28,120.021 318.5,122.5C 311.738,119.691 304.738,117.691 297.5,116.5 Z"/></g>
<g><path style="opacity:0.486" fill="#c3d9b4" d="M 278.5,116.5 C 275.855,118.31 272.855,119.31 269.5,119.5C 272.084,117.528 275.084,116.528 278.5,116.5 Z"/></g>
<g><path style="opacity:1" fill="#478b1f" d="M 278.5,116.5 C 284.833,116.5 291.167,116.5 297.5,116.5C 304.738,117.691 311.738,119.691 318.5,122.5C 319.492,122.328 320.158,122.662 320.5,123.5C 320.973,124.906 321.973,125.573 323.5,125.5C 323.973,126.906 324.973,127.573 326.5,127.5C 329.5,129.833 332.167,132.5 334.5,135.5C 334.738,137.404 335.738,138.738 337.5,139.5C 337.443,140.609 337.11,141.609 336.5,142.5C 335.564,143.974 334.23,144.974 332.5,145.5C 330.973,145.427 329.973,146.094 329.5,147.5C 327.973,147.427 326.973,148.094 326.5,149.5C 324.973,149.427 323.973,150.094 323.5,151.5C 321.973,151.427 320.973,152.094 320.5,153.5C 319.5,152.833 318.5,152.167 317.5,151.5C 316.5,148.5 314.5,146.5 311.5,145.5C 311.027,144.094 310.027,143.427 308.5,143.5C 306.847,143.34 305.514,142.674 304.5,141.5C 302.898,139.926 300.898,139.259 298.5,139.5C 293.015,138.348 287.349,138.182 281.5,139C 278.826,139.67 276.493,140.837 274.5,142.5C 272.973,142.427 271.973,143.094 271.5,144.5C 271.5,145.167 271.167,145.5 270.5,145.5C 267.167,146.833 264.833,149.167 263.5,152.5C 260.339,155.475 258.172,159.142 257,163.5C 256.183,169.016 256.349,174.35 257.5,179.5C 257.171,182.228 257.837,184.562 259.5,186.5C 260.338,186.842 260.672,187.508 260.5,188.5C 260.845,191.198 262.178,193.198 264.5,194.5C 265.92,198.217 268.587,200.55 272.5,201.5C 277.513,205.561 283.346,207.561 290,207.5C 295.66,207.628 300.827,206.294 305.5,203.5C 305.842,202.662 306.508,202.328 307.5,202.5C 310.198,202.155 312.198,200.822 313.5,198.5C 315.797,196.706 317.963,194.706 320,192.5C 320.671,193.252 321.504,193.586 322.5,193.5C 322.973,194.906 323.973,195.573 325.5,195.5C 325.973,196.906 326.973,197.573 328.5,197.5C 328.973,198.906 329.973,199.573 331.5,199.5C 331.973,200.906 332.973,201.573 334.5,201.5C 335.759,202.979 336.759,204.646 337.5,206.5C 337.167,207.5 336.5,208.167 335.5,208.5C 334.094,208.973 333.427,209.973 333.5,211.5C 331.781,214.219 329.447,216.219 326.5,217.5C 325.127,217.343 323.793,217.51 322.5,218C 323.598,218.77 323.598,219.603 322.5,220.5C 320.664,222.588 318.331,223.921 315.5,224.5C 312.759,224.707 310.426,225.707 308.5,227.5C 303,229.697 297.167,230.697 291,230.5C 286.242,230.634 281.742,229.968 277.5,228.5C 274.2,226.358 270.533,225.025 266.5,224.5C 266.167,224.5 265.833,224.5 265.5,224.5C 265.027,223.094 264.027,222.427 262.5,222.5C 261.508,222.672 260.842,222.338 260.5,221.5C 259.738,219.738 258.404,218.738 256.5,218.5C 255.089,216.086 253.089,214.419 250.5,213.5C 246.874,210.905 244.208,207.572 242.5,203.5C 242.573,201.973 241.906,200.973 240.5,200.5C 239.662,200.158 239.328,199.492 239.5,198.5C 238.737,194.863 237.403,191.53 235.5,188.5C 234.566,187.432 234.232,186.099 234.5,184.5C 234.5,176.5 234.5,168.5 234.5,160.5C 236.31,157.855 237.31,154.855 237.5,151.5C 237.5,151.167 237.5,150.833 237.5,150.5C 239.104,149.713 239.771,148.38 239.5,146.5C 240.906,146.027 241.573,145.027 241.5,143.5C 243.369,141.966 244.702,139.966 245.5,137.5C 249.167,134.5 252.5,131.167 255.5,127.5C 257.404,127.262 258.738,126.262 259.5,124.5C 259.842,123.662 260.508,123.328 261.5,123.5C 264.485,122.674 267.151,121.341 269.5,119.5C 272.855,119.31 275.855,118.31 278.5,116.5 Z"/></g>
<g><path style="opacity:0.212" fill="#cfe1c4" d="M 269.5,119.5 C 267.151,121.341 264.485,122.674 261.5,123.5C 263.579,121.127 266.246,119.794 269.5,119.5 Z"/></g>
<g><path style="opacity:0.141" fill="#d9e9d0" d="M 320.5,123.5 C 322.027,123.427 323.027,124.094 323.5,125.5C 321.973,125.573 320.973,124.906 320.5,123.5 Z"/></g>
<g><path style="opacity:0.4" fill="#c8dbbb" d="M 259.5,124.5 C 258.738,126.262 257.404,127.262 255.5,127.5C 256.262,125.738 257.596,124.738 259.5,124.5 Z"/></g>
<g><path style="opacity:0.008" fill="#e3ecdd" d="M 323.5,125.5 C 325.027,125.427 326.027,126.094 326.5,127.5C 324.973,127.573 323.973,126.906 323.5,125.5 Z"/></g>
<g><path style="opacity:0.49" fill="#c4dbb7" d="M 255.5,127.5 C 252.5,131.167 249.167,134.5 245.5,137.5C 247.833,133.167 251.167,129.833 255.5,127.5 Z"/></g>
<g><path style="opacity:0.678" fill="#b1ce9e" d="M 334.5,135.5 C 336.262,136.262 337.262,137.596 337.5,139.5C 335.738,138.738 334.738,137.404 334.5,135.5 Z"/></g>
<g><path style="opacity:0.561" fill="#c1d8b3" d="M 298.5,139.5 C 300.898,139.259 302.898,139.926 304.5,141.5C 302.214,141.405 300.214,140.738 298.5,139.5 Z"/></g>
<g><path style="opacity:0.329" fill="#caddbe" d="M 298.5,139.5 C 290.255,138.914 282.255,139.914 274.5,142.5C 276.493,140.837 278.826,139.67 281.5,139C 287.349,138.182 293.015,138.348 298.5,139.5 Z"/></g>
<g><path style="opacity:0.122" fill="#ccdfbf" d="M 337.5,139.5 C 338.885,140.947 338.552,141.947 336.5,142.5C 337.11,141.609 337.443,140.609 337.5,139.5 Z"/></g>
<g><path style="opacity:0.957" fill="#9bbf82" d="M 245.5,137.5 C 244.702,139.966 243.369,141.966 241.5,143.5C 241.845,140.802 243.178,138.802 245.5,137.5 Z"/></g>
<g><path style="opacity:0.047" fill="#dae8c8" d="M 274.5,142.5 C 274.027,143.906 273.027,144.573 271.5,144.5C 271.973,143.094 272.973,142.427 274.5,142.5 Z"/></g>
<g><path style="opacity:0.329" fill="#c9ddbc" d="M 308.5,143.5 C 310.027,143.427 311.027,144.094 311.5,145.5C 309.973,145.573 308.973,144.906 308.5,143.5 Z"/></g>
<g><path style="opacity:0.275" fill="#cee0c4" d="M 241.5,143.5 C 241.573,145.027 240.906,146.027 239.5,146.5C 239.427,144.973 240.094,143.973 241.5,143.5 Z"/></g>
<g><path style="opacity:0.675" fill="#b7d2a6" d="M 311.5,145.5 C 314.5,146.5 316.5,148.5 317.5,151.5C 315.167,149.833 313.167,147.833 311.5,145.5 Z"/></g>
<g><path style="opacity:0.004" fill="#e8f1e4" d="M 332.5,145.5 C 332.027,146.906 331.027,147.573 329.5,147.5C 329.973,146.094 330.973,145.427 332.5,145.5 Z"/></g>
<g><path style="opacity:1" fill="#92981c" d="M 387.5,168.5 C 382.554,168.262 378.221,169.596 374.5,172.5C 372.192,174.471 369.858,176.471 367.5,178.5C 365.526,180.428 364.026,182.761 363,185.5C 362.5,199.829 362.333,214.163 362.5,228.5C 355.5,228.5 348.5,228.5 341.5,228.5C 341.333,213.496 341.5,198.496 342,183.5C 343.43,180.647 344.263,177.647 344.5,174.5C 348.004,165.996 353.671,159.329 361.5,154.5C 363.848,154.408 365.514,153.408 366.5,151.5C 370.767,150.744 374.767,149.411 378.5,147.5C 381.565,146.182 384.731,146.182 388,147.5C 388.821,154.679 388.655,161.679 387.5,168.5 Z"/></g>
<g><path style="opacity:1" fill="#ffa715" d="M 616.5,146.5 C 616.5,154.167 616.5,161.833 616.5,169.5C 605.654,169.172 594.987,169.506 584.5,170.5C 583.334,172.166 583.334,173.833 584.5,175.5C 593.387,175.577 601.72,177.743 609.5,182C 610.381,182.708 611.047,183.542 611.5,184.5C 611.738,186.404 612.738,187.738 614.5,188.5C 614.427,190.027 615.094,191.027 616.5,191.5C 617.341,198.465 617.674,205.465 617.5,212.5C 616.921,215.331 615.588,217.664 613.5,219.5C 612.094,219.973 611.427,220.973 611.5,222.5C 609.371,224.95 606.704,226.617 603.5,227.5C 588.596,229.375 573.596,230.042 558.5,229.5C 558.5,221.833 558.5,214.167 558.5,206.5C 569.833,206.5 581.167,206.5 592.5,206.5C 594.179,206.715 595.179,206.048 595.5,204.5C 596.471,203.038 596.138,201.705 594.5,200.5C 588.779,200.631 583.112,200.131 577.5,199C 574.244,197.884 571.578,196.051 569.5,193.5C 568.118,191.451 566.452,189.785 564.5,188.5C 558.697,179.867 558.03,170.867 562.5,161.5C 563.906,161.027 564.573,160.027 564.5,158.5C 566.262,157.738 567.262,156.404 567.5,154.5C 569.296,152.1 571.63,150.433 574.5,149.5C 576.898,149.741 578.898,149.074 580.5,147.5C 592.322,146.505 604.322,146.172 616.5,146.5 Z"/></g>
<g><path style="opacity:0.012" fill="#e6eee0" d="M 270.5,145.5 C 268.5,148.167 266.167,150.5 263.5,152.5C 264.833,149.167 267.167,146.833 270.5,145.5 Z"/></g>
<g><path style="opacity:0.004" fill="#e8f2e4" d="M 329.5,147.5 C 329.027,148.906 328.027,149.573 326.5,149.5C 326.973,148.094 327.973,147.427 329.5,147.5 Z"/></g>
<g><path style="opacity:0.737" fill="#c1c379" d="M 378.5,147.5 C 374.767,149.411 370.767,150.744 366.5,151.5C 370.085,149.194 374.085,147.861 378.5,147.5 Z"/></g>
<g><path style="opacity:0.997" fill="#eac265" d="M 529.5,150.5 C 518.746,148.905 508.079,149.238 497.5,151.5C 505.344,147.801 513.677,146.634 522.5,148C 525.104,148.39 527.438,149.224 529.5,150.5 Z"/></g>
<g><path style="opacity:0.914" fill="#ffc96d" d="M 580.5,147.5 C 578.898,149.074 576.898,149.741 574.5,149.5C 576.102,147.926 578.102,147.259 580.5,147.5 Z"/></g>
<g><path style="opacity:1" fill="#6c911b" d="M 198.5,148.5 C 202.223,150.691 206.223,152.357 210.5,153.5C 213.295,154.063 215.628,155.396 217.5,157.5C 217.5,159.5 218.5,160.5 220.5,160.5C 223.952,164.299 226.618,168.632 228.5,173.5C 228.41,176.152 229.076,178.485 230.5,180.5C 231.807,186.734 231.807,193.068 230.5,199.5C 229.5,199.5 228.5,199.5 227.5,199.5C 227.5,201.833 227.5,204.167 227.5,206.5C 226.831,209.849 225.164,212.516 222.5,214.5C 221.094,214.973 220.427,215.973 220.5,217.5C 217.399,220.933 213.732,223.6 209.5,225.5C 205.463,226.065 201.797,227.399 198.5,229.5C 193.167,230.833 187.833,230.833 182.5,229.5C 179.855,227.69 176.855,226.69 173.5,226.5C 172.791,225.596 171.791,225.263 170.5,225.5C 170.5,235.833 170.5,246.167 170.5,256.5C 169.167,256.5 167.833,256.5 166.5,256.5C 165.22,255.069 163.553,254.402 161.5,254.5C 157.902,252.26 153.902,250.926 149.5,250.5C 149.5,228.167 149.5,205.833 149.5,183.5C 149.5,182.833 149.5,182.167 149.5,181.5C 150.924,179.485 151.59,177.152 151.5,174.5C 151.992,172.181 152.992,170.181 154.5,168.5C 155.5,168.5 156.5,168.5 157.5,168.5C 157.4,165.892 158.067,163.558 159.5,161.5C 159.833,160.5 160.5,159.833 161.5,159.5C 163.749,158.92 165.415,157.587 166.5,155.5C 167.659,153.75 169.326,152.75 171.5,152.5C 175.533,151.975 179.2,150.642 182.5,148.5C 187.734,147.198 193.067,147.198 198.5,148.5 Z M 196.5,171.5 C 201.417,173.415 205.083,176.748 207.5,181.5C 208.272,185.452 208.605,189.452 208.5,193.5C 207.264,195.649 206.264,197.982 205.5,200.5C 203.092,202.916 200.426,204.916 197.5,206.5C 191.229,208.175 185.229,207.509 179.5,204.5C 173.187,198.556 170.853,191.223 172.5,182.5C 173.674,181.486 174.34,180.153 174.5,178.5C 176.167,177.5 177.5,176.167 178.5,174.5C 179.167,174.5 179.5,174.167 179.5,173.5C 184.904,170.585 190.571,169.918 196.5,171.5 Z"/></g>
<g><path style="opacity:0.216" fill="#dae8d3" d="M 239.5,146.5 C 239.771,148.38 239.104,149.713 237.5,150.5C 237.66,148.847 238.326,147.514 239.5,146.5 Z"/></g>
<g><path style="opacity:1" fill="#b69c18" d="M 454.5,158.5 C 454.427,160.027 455.094,161.027 456.5,161.5C 457.08,163.749 458.413,165.415 460.5,166.5C 460.427,168.027 461.094,169.027 462.5,169.5C 462.229,171.38 462.896,172.713 464.5,173.5C 464.171,176.228 464.837,178.562 466.5,180.5C 467.315,191.425 465.315,201.758 460.5,211.5C 459.094,211.973 458.427,212.973 458.5,214.5C 454.586,220.417 449.253,224.417 442.5,226.5C 440.447,226.402 438.78,227.069 437.5,228.5C 433.946,229.984 430.112,230.651 426,230.5C 423.31,230.497 420.81,230.164 418.5,229.5C 414.767,227.589 410.767,226.256 406.5,225.5C 406.027,224.094 405.027,223.427 403.5,223.5C 402.415,221.413 400.749,220.08 398.5,219.5C 398.027,218.094 397.027,217.427 395.5,217.5C 382.274,200.718 381.107,183.051 392,164.5C 395.802,159.192 400.635,155.192 406.5,152.5C 410.533,151.975 414.2,150.642 417.5,148.5C 431.405,145.686 443.738,149.019 454.5,158.5 Z M 433.5,171.5 C 433.842,172.338 434.508,172.672 435.5,172.5C 437.167,174.833 439.167,176.833 441.5,178.5C 441.427,180.027 442.094,181.027 443.5,181.5C 445.175,187.771 444.509,193.771 441.5,199.5C 439.5,200.833 437.833,202.5 436.5,204.5C 433.139,205.883 429.639,206.883 426,207.5C 422.837,206.75 419.67,206.084 416.5,205.5C 416.027,204.094 415.027,203.427 413.5,203.5C 413.167,202.5 412.5,201.833 411.5,201.5C 411.573,199.973 410.906,198.973 409.5,198.5C 405.794,189.554 407.127,181.554 413.5,174.5C 415.027,174.573 416.027,173.906 416.5,172.5C 417.492,172.672 418.158,172.338 418.5,171.5C 423.5,170.167 428.5,170.167 433.5,171.5 Z"/></g>
<g><path style="opacity:1" fill="#dba213" d="M 529.5,150.5 C 535.195,152.008 539.862,155.008 543.5,159.5C 543.833,160.5 544.5,161.167 545.5,161.5C 547.262,162.262 548.262,163.596 548.5,165.5C 548.738,167.404 549.738,168.738 551.5,169.5C 551.402,171.553 552.069,173.22 553.5,174.5C 553.595,176.786 554.262,178.786 555.5,180.5C 556.164,183.146 556.498,185.979 556.5,189C 556.674,193.442 556.007,197.609 554.5,201.5C 552.326,204.515 550.659,207.849 549.5,211.5C 548.094,211.973 547.427,212.973 547.5,214.5C 544.072,219.264 539.738,222.93 534.5,225.5C 532.62,225.229 531.287,225.896 530.5,227.5C 530.167,227.5 529.833,227.5 529.5,227.5C 527.102,227.259 525.102,227.926 523.5,229.5C 517.833,230.833 512.167,230.833 506.5,229.5C 504.402,228.065 502.069,226.898 499.5,226C 497.934,225.235 496.601,225.402 495.5,226.5C 495.5,236.5 495.5,246.5 495.5,256.5C 493.236,255.781 490.903,255.448 488.5,255.5C 487.01,253.72 485.01,253.054 482.5,253.5C 480.349,251.711 477.849,250.378 475,249.5C 474.5,226.836 474.333,204.169 474.5,181.5C 474.861,177.085 476.194,173.085 478.5,169.5C 479.906,169.027 480.573,168.027 480.5,166.5C 484.554,159.786 490.22,154.786 497.5,151.5C 508.079,149.238 518.746,148.905 529.5,150.5 Z M 521.5,171.5 C 522.514,172.674 523.847,173.34 525.5,173.5C 526.833,175.5 528.5,177.167 530.5,178.5C 533.415,183.904 534.082,189.571 532.5,195.5C 531.326,196.514 530.66,197.847 530.5,199.5C 527.117,203.185 523.117,205.851 518.5,207.5C 514.802,207.448 511.135,207.114 507.5,206.5C 507.158,205.662 506.492,205.328 505.5,205.5C 505.027,204.094 504.027,203.427 502.5,203.5C 502.167,202.5 501.5,201.833 500.5,201.5C 500.573,199.973 499.906,198.973 498.5,198.5C 493.767,186.959 496.767,177.959 507.5,171.5C 512.167,170.167 516.833,170.167 521.5,171.5 Z"/></g>
<g><path style="opacity:0.956" fill="#7cac5e" d="M 88.5,148.5 C 88.5,148.833 88.5,149.167 88.5,149.5C 81.8333,149.5 75.1667,149.5 68.5,149.5C 68.5,166.833 68.5,184.167 68.5,201.5C 68.1667,201.5 67.8333,201.5 67.5,201.5C 66.5271,183.88 66.1938,166.214 66.5,148.5C 73.8333,148.5 81.1667,148.5 88.5,148.5 Z"/></g>
<g><path style="opacity:1" fill="#448a1b" d="M 88.5,149.5 C 88.3334,165.503 88.5001,181.503 89,197.5C 89.2784,198.416 89.7784,199.082 90.5,199.5C 91.3382,199.842 91.6716,200.508 91.5,201.5C 91.8333,203.833 93.1667,205.167 95.5,205.5C 96.4916,205.328 97.1583,205.662 97.5,206.5C 101.167,209.167 104.833,209.167 108.5,206.5C 113.149,205.349 115.982,202.349 117,197.5C 117.5,181.503 117.667,165.503 117.5,149.5C 124.5,149.5 131.5,149.5 138.5,149.5C 138.5,166.833 138.5,184.167 138.5,201.5C 138.5,201.833 138.5,202.167 138.5,202.5C 136.912,204.113 135.912,206.113 135.5,208.5C 132.108,209.99 130.774,212.657 131.5,216.5C 131.167,217.5 130.5,218.167 129.5,218.5C 128.5,218.833 127.833,219.5 127.5,220.5C 127.167,221.5 126.5,222.167 125.5,222.5C 123.833,222.5 122.167,222.5 120.5,222.5C 120.5,223.5 120.5,224.5 120.5,225.5C 120.158,226.338 119.492,226.672 118.5,226.5C 115.458,226.733 112.792,227.733 110.5,229.5C 105.821,229.666 101.155,229.499 96.5,229C 92.9913,227.241 89.3246,226.074 85.5,225.5C 85.0269,224.094 84.0269,223.427 82.5,223.5C 82.0472,222.542 81.3805,221.708 80.5,221C 80.8333,220.667 81.1667,220.333 81.5,220C 80.2842,218.26 78.6175,217.26 76.5,217C 77.6537,216.086 77.487,215.253 76,214.5C 75.6667,214.833 75.3333,215.167 75,215.5C 74.5831,214.244 73.7498,213.577 72.5,213.5C 70.9925,211.819 69.9925,209.819 69.5,207.5C 69.6747,205.379 69.3414,203.379 68.5,201.5C 68.5,184.167 68.5,166.833 68.5,149.5C 75.1667,149.5 81.8333,149.5 88.5,149.5 Z"/></g>
<g><path style="opacity:0.004" fill="#e9f2e5" d="M 326.5,149.5 C 326.027,150.906 325.027,151.573 323.5,151.5C 323.973,150.094 324.973,149.427 326.5,149.5 Z"/></g>
<g><path style="opacity:0.575" fill="#92ba79" d="M 117.5,149.5 C 117.5,149.167 117.5,148.833 117.5,148.5C 124.833,148.5 132.167,148.5 139.5,148.5C 139.83,166.341 139.497,184.008 138.5,201.5C 138.5,184.167 138.5,166.833 138.5,149.5C 131.5,149.5 124.5,149.5 117.5,149.5 Z"/></g>
<g><path style="opacity:1" fill="#9ab362" d="M 182.5,148.5 C 179.2,150.642 175.533,151.975 171.5,152.5C 174.66,150 178.327,148.667 182.5,148.5 Z"/></g>
<g><path style="opacity:0.984" fill="#d2be68" d="M 417.5,148.5 C 414.2,150.642 410.533,151.975 406.5,152.5C 409.66,150 413.327,148.667 417.5,148.5 Z"/></g>
<g><path style="opacity:1" fill="#9cb465" d="M 198.5,148.5 C 203.087,149.021 207.087,150.688 210.5,153.5C 206.223,152.357 202.223,150.691 198.5,148.5 Z"/></g>
<g><path style="opacity:0.004" fill="#ebf1e6" d="M 323.5,151.5 C 323.027,152.906 322.027,153.573 320.5,153.5C 320.973,152.094 321.973,151.427 323.5,151.5 Z"/></g>
<g><path style="opacity:0.09" fill="#ebf3e8" d="M 317.5,151.5 C 318.5,152.167 319.5,152.833 320.5,153.5C 318.668,154.718 317.668,154.051 317.5,151.5 Z"/></g>
<g><path style="opacity:0.694" fill="#c2c47c" d="M 366.5,151.5 C 365.514,153.408 363.848,154.408 361.5,154.5C 362.659,152.75 364.326,151.75 366.5,151.5 Z"/></g>
<g><path style="opacity:0.769" fill="#ffd58e" d="M 567.5,154.5 C 567.262,156.404 566.262,157.738 564.5,158.5C 564.738,156.596 565.738,155.262 567.5,154.5 Z"/></g>
<g><path style="opacity:0.502" fill="#bcd5ac" d="M 237.5,151.5 C 237.31,154.855 236.31,157.855 234.5,160.5C 234.528,157.084 235.528,154.084 237.5,151.5 Z"/></g>
<g><path style="opacity:0.006" fill="#ecf4e9" d="M 88.5,148.5 C 89.3195,151.305 89.8195,154.305 90,157.5C 90.4999,171.496 90.6666,185.496 90.5,199.5C 89.7784,199.082 89.2784,198.416 89,197.5C 88.5001,181.503 88.3334,165.503 88.5,149.5C 88.5,149.167 88.5,148.833 88.5,148.5 Z"/></g>
<g><path style="opacity:0.816" fill="#abbf7b" d="M 166.5,155.5 C 165.415,157.587 163.749,158.92 161.5,159.5C 162.585,157.413 164.251,156.08 166.5,155.5 Z"/></g>
<g><path style="opacity:0.631" fill="#cfdab2" d="M 217.5,157.5 C 218.833,158.167 219.833,159.167 220.5,160.5C 218.5,160.5 217.5,159.5 217.5,157.5 Z"/></g>
<g><path style="opacity:0.467" fill="#eee5c1" d="M 454.5,158.5 C 455.906,158.973 456.573,159.973 456.5,161.5C 455.094,161.027 454.427,160.027 454.5,158.5 Z"/></g>
<g><path style="opacity:0.004" fill="#f9efd4" d="M 543.5,159.5 C 544.833,159.5 545.5,160.167 545.5,161.5C 544.5,161.167 543.833,160.5 543.5,159.5 Z"/></g>
<g><path style="opacity:0.404" fill="#ffdea3" d="M 564.5,158.5 C 564.573,160.027 563.906,161.027 562.5,161.5C 562.427,159.973 563.094,158.973 564.5,158.5 Z"/></g>
<g><path style="opacity:0.149" fill="#d6e5cc" d="M 263.5,152.5 C 258.519,160.764 256.519,169.764 257.5,179.5C 256.349,174.35 256.183,169.016 257,163.5C 258.172,159.142 260.339,155.475 263.5,152.5 Z"/></g>
<g><path style="opacity:0.29" fill="#e5d9a1" d="M 456.5,161.5 C 458.587,162.585 459.92,164.251 460.5,166.5C 458.413,165.415 457.08,163.749 456.5,161.5 Z"/></g>
<g><path style="opacity:1" fill="#98b15f" d="M 159.5,161.5 C 158.067,163.558 157.4,165.892 157.5,168.5C 156.5,168.5 155.5,168.5 154.5,168.5C 155.433,165.63 157.1,163.296 159.5,161.5 Z"/></g>
<g><path style="opacity:0.563" fill="#c2d9b1" d="M 234.5,160.5 C 234.5,168.5 234.5,176.5 234.5,184.5C 231.833,176.5 231.833,168.5 234.5,160.5 Z"/></g>
<g><path style="opacity:0.435" fill="#f5e0af" d="M 548.5,165.5 C 550.262,166.262 551.262,167.596 551.5,169.5C 549.738,168.738 548.738,167.404 548.5,165.5 Z"/></g>
<g><path style="opacity:0.2" fill="#f0ebcc" d="M 460.5,166.5 C 461.906,166.973 462.573,167.973 462.5,169.5C 461.094,169.027 460.427,168.027 460.5,166.5 Z"/></g>
<g><path style="opacity:0.396" fill="#f3dba3" d="M 480.5,166.5 C 480.573,168.027 479.906,169.027 478.5,169.5C 478.427,167.973 479.094,166.973 480.5,166.5 Z"/></g>
<g><path style="opacity:0.086" fill="#f1f1dd" d="M 387.5,168.5 C 383.267,169.797 378.933,171.131 374.5,172.5C 378.221,169.596 382.554,168.262 387.5,168.5 Z"/></g>
<g><path style="opacity:0.081" fill="#f2eed4" d="M 433.5,171.5 C 428.5,170.167 423.5,170.167 418.5,171.5C 420.462,169.983 422.795,169.316 425.5,169.5C 428.486,169.382 431.152,170.048 433.5,171.5 Z"/></g>
<g><path style="opacity:0.086" fill="#faeed5" d="M 521.5,171.5 C 516.833,170.167 512.167,170.167 507.5,171.5C 512.167,168.833 516.833,168.833 521.5,171.5 Z"/></g>
<g><path style="opacity:0.076" fill="#fff3e3" d="M 616.5,146.5 C 617.492,154.316 617.826,162.316 617.5,170.5C 606.5,170.5 595.5,170.5 584.5,170.5C 594.987,169.506 605.654,169.172 616.5,169.5C 616.5,161.833 616.5,154.167 616.5,146.5 Z"/></g>
<g><path style="opacity:0.086" fill="#e5ebd4" d="M 196.5,171.5 C 190.571,169.918 184.904,170.585 179.5,173.5C 180.975,171.59 182.975,170.424 185.5,170C 188.833,169.333 192.167,169.333 195.5,170C 196.056,170.383 196.389,170.883 196.5,171.5 Z"/></g>
<g><path style="opacity:0.145" fill="#f3f0d9" d="M 462.5,169.5 C 463.674,170.514 464.34,171.847 464.5,173.5C 462.896,172.713 462.229,171.38 462.5,169.5 Z"/></g>
<g><path style="opacity:0.196" fill="#f9ebcc" d="M 551.5,169.5 C 552.931,170.78 553.598,172.447 553.5,174.5C 552.069,173.22 551.402,171.553 551.5,169.5 Z"/></g>
<g><path style="opacity:0.114" fill="#e2ecde" d="M 117.5,148.5 C 117.5,148.833 117.5,149.167 117.5,149.5C 117.667,165.503 117.5,181.503 117,197.5C 115.982,202.349 113.149,205.349 108.5,206.5C 112.287,204.203 114.787,200.869 116,196.5C 116.169,180.328 116.669,164.328 117.5,148.5 Z"/></g>
<g><path style="opacity:0.004" fill="#f9f7ed" d="M 416.5,172.5 C 416.027,173.906 415.027,174.573 413.5,174.5C 413.973,173.094 414.973,172.427 416.5,172.5 Z"/></g>
<g><path style="opacity:0.416" fill="#eee7c3" d="M 435.5,172.5 C 438.5,173.5 440.5,175.5 441.5,178.5C 439.167,176.833 437.167,174.833 435.5,172.5 Z"/></g>
<g><path style="opacity:0.506" fill="#f8e6c1" d="M 525.5,173.5 C 528.167,174.167 529.833,175.833 530.5,178.5C 528.5,177.167 526.833,175.5 525.5,173.5 Z"/></g>
<g><path style="opacity:0.047" fill="#e5ebcf" d="M 178.5,174.5 C 177.5,176.167 176.167,177.5 174.5,178.5C 174.833,176.167 176.167,174.833 178.5,174.5 Z"/></g>
<g><path style="opacity:0.796" fill="#afc283" d="M 228.5,173.5 C 229.924,175.515 230.59,177.848 230.5,180.5C 229.076,178.485 228.41,176.152 228.5,173.5 Z"/></g>
<g><path style="opacity:0.102" fill="#fbefd5" d="M 553.5,174.5 C 555.074,176.102 555.741,178.102 555.5,180.5C 554.262,178.786 553.595,176.786 553.5,174.5 Z"/></g>
<g><path style="opacity:0.22" fill="#eee4c4" d="M 464.5,173.5 C 465.924,175.515 466.59,177.848 466.5,180.5C 464.837,178.562 464.171,176.228 464.5,173.5 Z"/></g>
<g><path style="opacity:0.447" fill="#cbd8ac" d="M 151.5,174.5 C 151.59,177.152 150.924,179.485 149.5,181.5C 149.41,178.848 150.076,176.515 151.5,174.5 Z"/></g>
<g><path style="opacity:0.145" fill="#e3ead0" d="M 174.5,178.5 C 174.34,180.153 173.674,181.486 172.5,182.5C 172.229,180.62 172.896,179.287 174.5,178.5 Z"/></g>
<g><path style="opacity:0.263" fill="#ece3be" d="M 441.5,178.5 C 442.906,178.973 443.573,179.973 443.5,181.5C 442.094,181.027 441.427,180.027 441.5,178.5 Z"/></g>
<g><path style="opacity:0.294" fill="#cfe2c4" d="M 257.5,179.5 C 258.612,181.599 259.279,183.933 259.5,186.5C 257.837,184.562 257.171,182.228 257.5,179.5 Z"/></g>
<g><path style="opacity:0.671" fill="#ffe0ad" d="M 611.5,184.5 C 613.262,185.262 614.262,186.596 614.5,188.5C 612.738,187.738 611.738,186.404 611.5,184.5 Z"/></g>
<g><path style="opacity:0.068" fill="#e8ede1" d="M 207.5,181.5 C 208.222,181.918 208.722,182.584 209,183.5C 209.498,186.817 209.665,190.15 209.5,193.5C 209.167,193.5 208.833,193.5 208.5,193.5C 208.605,189.452 208.272,185.452 207.5,181.5 Z"/></g>
<g><path style="opacity:0.447" fill="#e0d295" d="M 443.5,181.5 C 444.222,181.918 444.722,182.584 445,183.5C 445.667,186.833 445.667,190.167 445,193.5C 444.647,196.152 443.48,198.152 441.5,199.5C 444.509,193.771 445.175,187.771 443.5,181.5 Z"/></g>
<g><path style="opacity:0.953" fill="#ffd58e" d="M 564.5,188.5 C 566.452,189.785 568.118,191.451 569.5,193.5C 566.856,192.856 565.189,191.189 564.5,188.5 Z"/></g>
<g><path style="opacity:0.413" fill="#ccd8ae" d="M 149.5,183.5 C 149.5,205.833 149.5,228.167 149.5,250.5C 153.902,250.926 157.902,252.26 161.5,254.5C 157.225,253.348 152.892,252.348 148.5,251.5C 148.169,228.661 148.503,205.994 149.5,183.5 Z"/></g>
<g><path style="opacity:0.176" fill="#d8e6cc" d="M 260.5,188.5 C 262.326,190.147 263.66,192.147 264.5,194.5C 262.178,193.198 260.845,191.198 260.5,188.5 Z"/></g>
<g><path style="opacity:0.494" fill="#f1d798" d="M 530.5,178.5 C 532.136,179.749 533.303,181.416 534,183.5C 534.667,187.167 534.667,190.833 534,194.5C 533.617,195.056 533.117,195.389 532.5,195.5C 534.082,189.571 533.415,183.904 530.5,178.5 Z"/></g>
<g><path style="opacity:0.282" fill="#ffe9be" d="M 614.5,188.5 C 615.906,188.973 616.573,189.973 616.5,191.5C 615.094,191.027 614.427,190.027 614.5,188.5 Z"/></g>
<g><path style="opacity:0.126" fill="#ececdb" d="M 367.5,178.5 C 366.346,181.479 365.18,184.479 364,187.5C 363.5,201.496 363.333,215.496 363.5,229.5C 355.5,229.5 347.5,229.5 339.5,229.5C 339.171,215.656 339.504,201.99 340.5,188.5C 340.171,202.01 340.504,215.344 341.5,228.5C 348.5,228.5 355.5,228.5 362.5,228.5C 362.333,214.163 362.5,199.829 363,185.5C 364.026,182.761 365.526,180.428 367.5,178.5 Z"/></g>
<g><path style="opacity:0.715" fill="#b7ba66" d="M 344.5,174.5 C 344.263,177.647 343.43,180.647 342,183.5C 341.5,198.496 341.333,213.496 341.5,228.5C 340.504,215.344 340.171,202.01 340.5,188.5C 340.446,183.341 341.779,178.675 344.5,174.5 Z"/></g>
<g><path style="opacity:0.682" fill="#e9c466" d="M 474.5,181.5 C 474.333,204.169 474.5,226.836 475,249.5C 477.849,250.378 480.349,251.711 482.5,253.5C 479.5,252.833 476.5,252.167 473.5,251.5C 473.169,227.994 473.502,204.661 474.5,181.5 Z"/></g>
<g><path style="opacity:0.341" fill="#c4d9b6" d="M 235.5,188.5 C 237.403,191.53 238.737,194.863 239.5,198.5C 237.206,195.63 235.872,192.297 235.5,188.5 Z"/></g>
<g><path style="opacity:0.31" fill="#d7e6cd" d="M 322.5,193.5 C 321.504,193.586 320.671,193.252 320,192.5C 317.963,194.706 315.797,196.706 313.5,198.5C 314.907,194.576 317.574,192.409 321.5,192C 322.056,192.383 322.389,192.883 322.5,193.5 Z"/></g>
<g><path style="opacity:0.055" fill="#e3f2dd" d="M 322.5,193.5 C 324.027,193.427 325.027,194.094 325.5,195.5C 323.973,195.573 322.973,194.906 322.5,193.5 Z"/></g>
<g><path style="opacity:0.055" fill="#e1e9cf" d="M 172.5,182.5 C 170.853,191.223 173.187,198.556 179.5,204.5C 177.629,204.141 176.129,203.141 175,201.5C 170.317,195.496 169.484,189.163 172.5,182.5 Z"/></g>
<g><path style="opacity:0.612" fill="#c2d9b4" d="M 264.5,194.5 C 267.207,196.843 269.874,199.177 272.5,201.5C 268.587,200.55 265.92,198.217 264.5,194.5 Z"/></g>
<g><path style="opacity:0.051" fill="#e4f3df" d="M 325.5,195.5 C 327.027,195.427 328.027,196.094 328.5,197.5C 326.973,197.573 325.973,196.906 325.5,195.5 Z"/></g>
<g><path style="opacity:0.933" fill="#abbf7d" d="M 208.5,193.5 C 208.833,193.5 209.167,193.5 209.5,193.5C 209.264,196.621 207.931,198.954 205.5,200.5C 206.264,197.982 207.264,195.649 208.5,193.5 Z"/></g>
<g><path style="opacity:0.055" fill="#e5f4e1" d="M 328.5,197.5 C 330.027,197.427 331.027,198.094 331.5,199.5C 329.973,199.573 328.973,198.906 328.5,197.5 Z"/></g>
<g><path style="opacity:1" fill="#9cb467" d="M 230.5,199.5 C 230.065,202.157 229.065,204.491 227.5,206.5C 227.5,204.167 227.5,201.833 227.5,199.5C 228.5,199.5 229.5,199.5 230.5,199.5 Z"/></g>
<g><path style="opacity:0.059" fill="#e5f4e0" d="M 331.5,199.5 C 333.027,199.427 334.027,200.094 334.5,201.5C 332.973,201.573 331.973,200.906 331.5,199.5 Z"/></g>
<g><path style="opacity:0.333" fill="#ece4bc" d="M 409.5,198.5 C 410.906,198.973 411.573,199.973 411.5,201.5C 410.094,201.027 409.427,200.027 409.5,198.5 Z"/></g>
<g><path style="opacity:0.6" fill="#e6dca7" d="M 441.5,199.5 C 440.833,202.167 439.167,203.833 436.5,204.5C 437.833,202.5 439.5,200.833 441.5,199.5 Z"/></g>
<g><path style="opacity:0.255" fill="#f8eac5" d="M 498.5,198.5 C 499.906,198.973 500.573,199.973 500.5,201.5C 499.094,201.027 498.427,200.027 498.5,198.5 Z"/></g>
<g><path style="opacity:0.922" fill="#ffcb71" d="M 616.5,191.5 C 619.956,198.378 620.289,205.378 617.5,212.5C 617.674,205.465 617.341,198.465 616.5,191.5 Z"/></g>
<g><path style="opacity:0.416" fill="#c9ddbd" d="M 313.5,198.5 C 312.198,200.822 310.198,202.155 307.5,202.5C 309.147,200.674 311.147,199.34 313.5,198.5 Z"/></g>
<g><path style="opacity:0.588" fill="#c6dcb7" d="M 91.5,201.5 C 93.1667,202.5 94.5,203.833 95.5,205.5C 93.1667,205.167 91.8333,203.833 91.5,201.5 Z"/></g>
<g><path style="opacity:0.231" fill="#cde0c2" d="M 240.5,200.5 C 241.906,200.973 242.573,201.973 242.5,203.5C 241.094,203.027 240.427,202.027 240.5,200.5 Z"/></g>
<g><path style="opacity:0.165" fill="#d4e5c9" d="M 272.5,201.5 C 277.987,204.272 283.82,205.939 290,206.5C 295.26,205.874 300.427,204.874 305.5,203.5C 300.827,206.294 295.66,207.628 290,207.5C 283.346,207.561 277.513,205.561 272.5,201.5 Z"/></g>
<g><path style="opacity:0.047" fill="#c5ddba" d="M 334.5,201.5 C 337.854,202.123 338.854,203.79 337.5,206.5C 336.759,204.646 335.759,202.979 334.5,201.5 Z"/></g>
<g><path style="opacity:0.773" fill="#a6c68d" d="M 67.5,201.5 C 67.8333,201.5 68.1667,201.5 68.5,201.5C 69.3414,203.379 69.6747,205.379 69.5,207.5C 68.2616,205.786 67.595,203.786 67.5,201.5 Z"/></g>
<g><path style="opacity:0.047" fill="#f0ebc6" d="M 413.5,203.5 C 415.027,203.427 416.027,204.094 416.5,205.5C 414.973,205.573 413.973,204.906 413.5,203.5 Z"/></g>
<g><path style="opacity:0.396" fill="#ffe7bb" d="M 594.5,200.5 C 596.138,201.705 596.471,203.038 595.5,204.5C 594.766,203.292 594.433,201.959 594.5,200.5 Z"/></g>
<g><path style="opacity:0.129" fill="#f2edd3" d="M 466.5,180.5 C 468.059,188.486 467.559,196.486 465,204.5C 463.974,207.239 462.474,209.572 460.5,211.5C 465.315,201.758 467.315,191.425 466.5,180.5 Z"/></g>
<g><path style="opacity:0.106" fill="#fbf0d5" d="M 502.5,203.5 C 504.027,203.427 505.027,204.094 505.5,205.5C 503.973,205.573 502.973,204.906 502.5,203.5 Z"/></g>
<g><path style="opacity:0.982" fill="#9eb468" d="M 205.5,200.5 C 204.448,204.563 201.781,206.563 197.5,206.5C 200.426,204.916 203.092,202.916 205.5,200.5 Z"/></g>
<g><path style="opacity:0.443" fill="#ffebc7" d="M 595.5,204.5 C 595.179,206.048 594.179,206.715 592.5,206.5C 593.29,205.599 594.29,204.932 595.5,204.5 Z"/></g>
<g><path style="opacity:0.098" fill="#f9ebcc" d="M 530.5,199.5 C 528.24,204.639 524.24,207.306 518.5,207.5C 523.117,205.851 527.117,203.185 530.5,199.5 Z"/></g>
<g><path style="opacity:0.239" fill="#cee0c2" d="M 97.5,206.5 C 101.167,207.833 104.833,207.833 108.5,206.5C 104.833,209.167 101.167,209.167 97.5,206.5 Z"/></g>
<g><path style="opacity:0.192" fill="#dfe8ce" d="M 179.5,204.5 C 185.229,207.509 191.229,208.175 197.5,206.5C 193.806,208.412 189.806,208.912 185.5,208C 182.975,207.576 180.975,206.41 179.5,204.5 Z"/></g>
<g><path style="opacity:0.239" fill="#ece3bc" d="M 436.5,204.5 C 433.668,207.282 430.168,208.615 426,208.5C 422.39,208.573 419.223,207.573 416.5,205.5C 419.67,206.084 422.837,206.75 426,207.5C 429.639,206.883 433.139,205.883 436.5,204.5 Z"/></g>
<g><path style="opacity:0.235" fill="#f7e7c3" d="M 507.5,206.5 C 511.135,207.114 514.802,207.448 518.5,207.5C 517.207,208.158 515.707,208.492 514,208.5C 511.456,208.664 509.29,207.997 507.5,206.5 Z"/></g>
<g><path style="opacity:0.318" fill="#bdd6af" d="M 138.5,202.5 C 138.267,205.542 137.267,208.208 135.5,210.5C 135.5,209.833 135.5,209.167 135.5,208.5C 135.912,206.113 136.912,204.113 138.5,202.5 Z"/></g>
<g><path style="opacity:0.192" fill="#f8e9c7" d="M 554.5,201.5 C 553.873,205.42 552.207,208.753 549.5,211.5C 550.659,207.849 552.326,204.515 554.5,201.5 Z"/></g>
<g><path style="opacity:0.031" fill="#d7e4cc" d="M 335.5,208.5 C 335.573,210.027 334.906,211.027 333.5,211.5C 333.427,209.973 334.094,208.973 335.5,208.5 Z"/></g>
<g><path style="opacity:1" fill="#79a95a" d="M 135.5,208.5 C 135.5,209.167 135.5,209.833 135.5,210.5C 134.649,212.882 133.316,214.882 131.5,216.5C 130.774,212.657 132.108,209.99 135.5,208.5 Z"/></g>
<g><path style="opacity:0.02" fill="#faeed6" d="M 549.5,211.5 C 549.573,213.027 548.906,214.027 547.5,214.5C 547.427,212.973 548.094,211.973 549.5,211.5 Z"/></g>
<g><path style="opacity:0.808" fill="#a6c791" d="M 250.5,213.5 C 253.089,214.419 255.089,216.086 256.5,218.5C 253.911,217.581 251.911,215.914 250.5,213.5 Z"/></g>
<g><path style="opacity:0.051" fill="#f7f4dc" d="M 460.5,211.5 C 460.573,213.027 459.906,214.027 458.5,214.5C 458.427,212.973 459.094,211.973 460.5,211.5 Z"/></g>
<g><path style="opacity:0.016" fill="#e1e8cf" d="M 222.5,214.5 C 222.573,216.027 221.906,217.027 220.5,217.5C 220.427,215.973 221.094,214.973 222.5,214.5 Z"/></g>
<g><path style="opacity:1" fill="#92b975" d="M 326.5,217.5 C 325.738,219.262 324.404,220.262 322.5,220.5C 323.598,219.603 323.598,218.77 322.5,218C 323.793,217.51 325.127,217.343 326.5,217.5 Z"/></g>
<g><path style="opacity:0.553" fill="#e7dcad" d="M 395.5,217.5 C 397.027,217.427 398.027,218.094 398.5,219.5C 396.973,219.573 395.973,218.906 395.5,217.5 Z"/></g>
<g><path style="opacity:1" fill="#72a552" d="M 72.5,213.5 C 73.7498,213.577 74.5831,214.244 75,215.5C 75.3333,215.167 75.6667,214.833 76,214.5C 77.487,215.253 77.6537,216.086 76.5,217C 78.6175,217.26 80.2842,218.26 81.5,220C 81.1667,220.333 80.8333,220.667 80.5,221C 81.3805,221.708 82.0472,222.542 82.5,223.5C 78.1881,221.188 74.8548,217.855 72.5,213.5 Z"/></g>
<g><path style="opacity:0.004" fill="#d6e4cb" d="M 129.5,218.5 C 129.5,219.833 128.833,220.5 127.5,220.5C 127.833,219.5 128.5,218.833 129.5,218.5 Z"/></g>
<g><path style="opacity:0.584" fill="#adcb9a" d="M 256.5,218.5 C 258.404,218.738 259.738,219.738 260.5,221.5C 258.596,221.262 257.262,220.262 256.5,218.5 Z"/></g>
<g><path style="opacity:0.863" fill="#daca83" d="M 398.5,219.5 C 400.749,220.08 402.415,221.413 403.5,223.5C 401.251,222.92 399.585,221.587 398.5,219.5 Z"/></g>
<g><path style="opacity:0.012" fill="#ffeed2" d="M 613.5,219.5 C 613.573,221.027 612.906,222.027 611.5,222.5C 611.427,220.973 612.094,219.973 613.5,219.5 Z"/></g>
<g><path style="opacity:0.996" fill="#8bb46f" d="M 125.5,222.5 C 124.341,224.25 122.674,225.25 120.5,225.5C 120.5,224.5 120.5,223.5 120.5,222.5C 122.167,222.5 123.833,222.5 125.5,222.5 Z"/></g>
<g><path style="opacity:0.255" fill="#cbdebe" d="M 262.5,222.5 C 264.027,222.427 265.027,223.094 265.5,224.5C 263.973,224.573 262.973,223.906 262.5,222.5 Z"/></g>
<g><path style="opacity:0.416" fill="#b7d1a7" d="M 82.5,223.5 C 84.0269,223.427 85.0269,224.094 85.5,225.5C 83.9731,225.573 82.9731,224.906 82.5,223.5 Z"/></g>
<g><path style="opacity:0.337" fill="#eae0b5" d="M 403.5,223.5 C 405.027,223.427 406.027,224.094 406.5,225.5C 404.973,225.573 403.973,224.906 403.5,223.5 Z"/></g>
<g><path style="opacity:0.376" fill="#bfd7b0" d="M 315.5,224.5 C 313.574,226.293 311.241,227.293 308.5,227.5C 310.426,225.707 312.759,224.707 315.5,224.5 Z"/></g>
<g><path style="opacity:0.925" fill="#dbcd85" d="M 406.5,225.5 C 410.767,226.256 414.767,227.589 418.5,229.5C 414.085,229.139 410.085,227.806 406.5,225.5 Z"/></g>
<g><path style="opacity:0.894" fill="#efcf84" d="M 495.5,226.5 C 496.601,225.402 497.934,225.235 499.5,226C 502.069,226.898 504.402,228.065 506.5,229.5C 502.763,228.8 499.096,227.8 495.5,226.5 Z"/></g>
<g><path style="opacity:0.663" fill="#a3c48d" d="M 266.5,224.5 C 270.533,225.025 274.2,226.358 277.5,228.5C 273.327,228.333 269.66,227 266.5,224.5 Z"/></g>
<g><path style="opacity:0.004" fill="#faf0da" d="M 534.5,225.5 C 533.486,226.674 532.153,227.34 530.5,227.5C 531.287,225.896 532.62,225.229 534.5,225.5 Z"/></g>
<g><path style="opacity:0.018" fill="#fbfcf9" d="M 171.5,227.5 C 172.658,237.325 172.825,247.325 172,257.5C 170.004,258.341 168.171,258.008 166.5,256.5C 167.833,256.5 169.167,256.5 170.5,256.5C 171.494,247.014 171.827,237.348 171.5,227.5 Z"/></g>
<g><path style="opacity:0.655" fill="#b6c88d" d="M 173.5,226.5 C 176.855,226.69 179.855,227.69 182.5,229.5C 179.084,229.472 176.084,228.472 173.5,226.5 Z"/></g>
<g><path style="opacity:0.584" fill="#c6d3a4" d="M 209.5,225.5 C 206.2,227.642 202.533,228.975 198.5,229.5C 201.797,227.399 205.463,226.065 209.5,225.5 Z"/></g>
<g><path style="opacity:0.306" fill="#e7dead" d="M 442.5,226.5 C 441.22,227.931 439.553,228.598 437.5,228.5C 438.78,227.069 440.447,226.402 442.5,226.5 Z"/></g>
<g><path style="opacity:0.333" fill="#b8d2a8" d="M 118.5,226.5 C 116.208,228.267 113.542,229.267 110.5,229.5C 112.792,227.733 115.458,226.733 118.5,226.5 Z"/></g>
<g><path style="opacity:0.271" fill="#f5e1b2" d="M 529.5,227.5 C 527.786,228.738 525.786,229.405 523.5,229.5C 525.102,227.926 527.102,227.259 529.5,227.5 Z"/></g>
<g><path style="opacity:0.356" fill="#bbd4ab" d="M 85.5,225.5 C 89.3246,226.074 92.9913,227.241 96.5,229C 101.155,229.499 105.821,229.666 110.5,229.5C 101.629,231.684 93.2956,230.351 85.5,225.5 Z"/></g>
<g><path style="opacity:0.365" fill="#ffe2ad" d="M 603.5,227.5 C 601.852,228.927 599.852,229.76 597.5,230C 584.327,230.827 571.327,230.66 558.5,229.5C 573.596,230.042 588.596,229.375 603.5,227.5 Z"/></g>
<g><path style="opacity:0.404" fill="#c0cf9c" d="M 173.5,226.5 C 172.508,226.328 171.842,226.662 171.5,227.5C 171.827,237.348 171.494,247.014 170.5,256.5C 170.5,246.167 170.5,235.833 170.5,225.5C 171.791,225.263 172.791,225.596 173.5,226.5 Z"/></g>
<g><path style="opacity:0.796" fill="#f5daa1" d="M 482.5,253.5 C 485.01,253.054 487.01,253.72 488.5,255.5C 486.214,255.405 484.214,254.738 482.5,253.5 Z"/></g>
<g><path style="opacity:0.063" fill="#edefe8" d="M 161.5,254.5 C 163.553,254.402 165.22,255.069 166.5,256.5C 164.447,256.598 162.78,255.931 161.5,254.5 Z"/></g>
<g><path style="opacity:0.082" fill="#f9e5bf" d="M 488.5,255.5 C 490.903,255.448 493.236,255.781 495.5,256.5C 495.631,257.239 495.464,257.906 495,258.5C 492.706,257.578 490.539,256.578 488.5,255.5 Z"/></g>
</svg>
